<?xml version="1.0" standalone="no"?>
<!DOCTYPE svg PUBLIC "-//W3C//DTD SVG 20010904//EN"
 "http://www.w3.org/TR/2001/REC-SVG-20010904/DTD/svg10.dtd">
<svg version="1.0" xmlns="http://www.w3.org/2000/svg"
 width="512.000000pt" height="512.000000pt" viewBox="0 0 512.000000 512.000000"
 preserveAspectRatio="xMidYMid meet">
<metadata>
Created by potrace 1.16, written by Peter Selinger 2001-2019
</metadata>
<g transform="translate(0.000000,512.000000) scale(0.100000,-0.100000)"
fill="#000000" stroke="none">
<path d="M3715 4940 c-124 -48 -229 -169 -335 -385 -116 -238 -199 -526 -262
-910 l-33 -205 -885 0 c-722 0 -909 -3 -1013 -15 -503 -59 -878 -237 -994
-473 -25 -51 -28 -68 -28 -157 0 -87 3 -107 26 -156 34 -72 129 -173 217 -229
l71 -45 0 -728 1 -727 -41 -37 c-59 -53 -127 -153 -161 -236 -41 -99 -50 -232
-20 -299 28 -64 88 -127 147 -154 l50 -24 1545 0 1545 0 52 24 51 24 59 -24
c55 -22 68 -24 290 -24 208 0 238 2 285 20 126 47 231 167 338 385 156 320
257 744 317 1335 26 253 26 1067 0 1320 -60 592 -162 1019 -317 1335 -108 219
-212 338 -338 385 -47 18 -77 20 -285 19 -205 0 -238 -2 -282 -19z m531 -173
c45 -23 127 -117 176 -200 180 -308 313 -879 358 -1537 5 -80 10 -291 10 -470
0 -179 -5 -390 -10 -470 -66 -959 -316 -1697 -596 -1760 l-32 -7 40 51 c53 69
168 307 212 440 101 300 168 647 213 1086 26 253 26 1067 0 1320 -44 435 -110
777 -207 1070 -49 146 -162 383 -218 456 l-40 51 32 -7 c17 -4 45 -14 62 -23z
m-327 4 c51 -26 132 -116 183 -204 180 -308 313 -879 358 -1537 5 -80 10 -291
10 -470 0 -179 -5 -390 -10 -470 -45 -658 -178 -1229 -358 -1537 -51 -88 -132
-178 -183 -204 -42 -21 -105 -25 -142 -8 -22 10 -23 14 -19 97 3 73 0 99 -21
160 -14 41 -41 99 -59 130 -45 76 -151 182 -220 221 l-56 32 -22 80 c-31 115
-70 290 -70 315 0 18 9 23 58 32 166 33 337 24 527 -27 58 -16 116 -27 128
-24 75 19 88 122 20 156 -52 27 -237 68 -360 79 -116 11 -243 5 -379 -18 l-30
-6 -17 144 c-31 260 -40 391 -41 592 l-1 200 43 13 c146 42 363 36 558 -17
111 -29 143 -29 171 2 26 29 24 95 -5 118 -43 35 -216 76 -382 90 -107 10
-281 0 -350 -20 -19 -5 -37 -10 -39 -10 -2 0 -1 87 2 193 7 186 23 384 48 575
14 110 7 105 169 129 136 21 304 7 468 -37 99 -27 116 -29 140 -18 57 27 66
112 15 145 -40 27 -236 72 -364 85 -116 11 -312 2 -363 -18 -17 -7 -18 -4 -11
42 12 85 84 360 125 479 93 267 210 458 320 515 46 25 111 25 159 1z m-2114
-1512 c314 -32 605 -128 770 -252 122 -92 164 -197 118 -295 -25 -53 -112
-135 -195 -183 -40 -23 -79 -49 -85 -58 -10 -11 -13 -99 -13 -362 l0 -347 -57
23 c-109 44 -210 58 -382 52 -182 -6 -257 -23 -391 -92 -133 -69 -253 -180
-324 -300 -13 -21 -46 -44 -117 -78 -113 -56 -228 -154 -305 -264 -38 -52 -52
-64 -87 -73 -23 -6 -54 -15 -69 -20 l-28 -9 0 728 c0 567 -3 731 -12 742 -7 9
-47 35 -88 59 -85 49 -167 127 -193 182 -46 98 -5 203 118 295 195 147 539
246 910 262 167 7 295 4 430 -10z m1261 -26 c-30 -234 -35 -886 -11 -1213 25
-328 69 -637 124 -865 l19 -80 -20 30 c-12 17 -63 71 -114 122 -79 79 -106 99
-192 140 -92 45 -102 52 -138 108 -21 32 -69 89 -106 126 l-68 67 1 348 0 349
71 45 c88 56 183 157 217 229 23 49 26 69 26 156 0 89 -3 106 -28 157 -52 106
-162 206 -321 290 l-71 37 308 1 309 0 -6 -47z m-871 -1584 c247 -59 443 -258
501 -507 28 -119 20 -220 -36 -491 -28 -135 -56 -259 -62 -275 -22 -55 -29
-56 -598 -56 -423 0 -527 3 -554 14 -19 8 -36 18 -40 24 -3 5 -31 128 -61 273
-62 291 -70 388 -41 510 55 239 233 430 465 499 131 40 285 43 426 9z m-1069
-524 c-19 -127 -8 -246 50 -522 31 -147 58 -272 61 -277 3 -4 -59 -7 -138 -5
-128 4 -148 7 -180 27 -39 24 -79 77 -97 131 -42 122 30 377 152 538 40 53
141 153 154 153 3 0 1 -20 -2 -45z m1881 -84 c133 -160 216 -433 171 -562 -18
-54 -58 -107 -97 -131 -32 -20 -52 -23 -180 -27 -79 -2 -141 1 -138 5 3 5 30
130 61 277 58 277 70 395 50 524 l-7 47 43 -34 c23 -19 67 -63 97 -99z m-2347
-300 c-36 -142 -26 -281 26 -383 8 -15 14 -30 14 -34 0 -3 -44 -4 -97 -2 -112
5 -154 21 -179 70 -38 73 12 222 108 325 48 50 137 118 145 109 2 -1 -6 -40
-17 -85z m2801 -17 c102 -107 154 -256 115 -332 -25 -49 -67 -65 -178 -70 -54
-2 -98 -2 -98 1 0 2 12 31 27 63 38 84 44 234 14 351 -12 45 -21 84 -21 88 0
17 87 -46 141 -101z"/>
<path d="M1230 3054 c-118 -16 -266 -51 -353 -84 -48 -18 -62 -28 -73 -55 -29
-69 27 -133 100 -114 17 4 68 19 114 33 164 50 249 60 502 60 253 0 338 -10
502 -60 46 -14 97 -29 114 -33 73 -19 129 45 100 114 -16 38 -66 61 -221 100
-209 53 -550 70 -785 39z"/>
</g>
</svg>
