<?xml version="1.0" standalone="no"?>
<!DOCTYPE svg PUBLIC "-//W3C//DTD SVG 20010904//EN"
 "http://www.w3.org/TR/2001/REC-SVG-20010904/DTD/svg10.dtd">
<svg version="1.0" xmlns="http://www.w3.org/2000/svg"
 width="512.000000pt" height="512.000000pt" viewBox="0 0 512.000000 512.000000"
 preserveAspectRatio="xMidYMid meet">
<metadata>
Created by potrace 1.16, written by Peter Selinger 2001-2019
</metadata>
<g transform="translate(0.000000,512.000000) scale(0.100000,-0.100000)"
fill="#000000" stroke="none">
<path d="M3470 4922 c-89 -34 -136 -66 -215 -146 -91 -92 -144 -185 -171 -302
-9 -38 -18 -75 -20 -81 -2 -8 -23 -13 -56 -13 -137 0 -305 -76 -419 -190 -185
-184 -280 -423 -334 -845 -21 -167 -45 -213 -177 -341 -193 -185 -264 -261
-313 -333 -35 -51 -53 -70 -64 -66 -54 21 -198 58 -262 67 l-76 11 9 41 c28
125 124 244 243 301 82 38 104 60 111 106 6 42 -24 95 -63 110 -34 13 -97 -1
-165 -37 l-48 -24 -6 28 c-23 96 -95 213 -176 288 -137 125 -346 181 -522 140
-73 -17 -95 -39 -112 -112 -29 -126 -7 -283 58 -407 49 -94 160 -199 261 -248
45 -21 111 -44 147 -50 36 -7 66 -13 68 -14 2 -2 -2 -30 -8 -63 l-12 -60 -62
-7 c-266 -30 -517 -155 -722 -359 -186 -185 -305 -411 -349 -660 -19 -114 -19
-325 1 -441 38 -222 142 -438 291 -607 215 -242 491 -384 818 -419 258 -27
522 29 752 162 l84 48 71 -30 c565 -233 1179 -247 1701 -40 619 246 1089 810
1311 1572 53 181 67 292 73 557 5 226 -6 422 -28 481 -5 13 -39 55 -74 94 -75
80 -127 179 -151 282 -39 173 -54 190 -162 188 -76 -1 -144 -19 -218 -56 -55
-28 -124 -97 -124 -125 -1 -50 -30 -281 -38 -303 -6 -15 -26 -32 -50 -43 -46
-21 -55 -36 -103 -171 -17 -49 -55 -140 -85 -203 l-54 -115 -63 104 c-35 57
-78 127 -95 154 -56 91 -94 183 -99 243 -3 32 2 98 12 152 26 149 32 463 11
585 -55 321 -214 531 -466 617 -64 21 -63 16 -33 111 37 119 125 216 246 271
77 35 97 59 97 116 0 42 -46 90 -90 95 -20 2 -55 -3 -80 -13z m-240 -772 c169
-47 287 -177 343 -375 28 -102 34 -370 12 -530 -45 -330 -32 -390 153 -687 92
-149 133 -223 147 -266 10 -33 -105 -181 -270 -346 -297 -298 -638 -501 -1031
-615 -39 -12 -73 -21 -76 -21 -3 0 -8 71 -11 158 -10 275 -68 453 -220 681
-60 90 -197 229 -294 300 -40 29 -73 55 -73 57 0 3 18 29 39 58 44 59 103 121
269 279 171 164 220 254 242 447 53 460 187 739 406 842 96 45 242 52 364 18z
m-2267 -725 c159 -41 273 -177 285 -338 l5 -70 -70 5 c-183 13 -332 163 -350
351 l-6 67 39 0 c22 0 66 -7 97 -15z m3702 -182 c21 -112 99 -259 187 -349 35
-37 40 -49 50 -115 6 -44 8 -168 5 -304 -6 -277 -25 -397 -96 -613 -125 -377
-304 -682 -543 -923 -321 -325 -696 -500 -1158 -540 -522 -45 -1122 149 -1638
530 -56 41 -102 79 -102 84 0 4 19 28 43 53 l42 44 60 -14 c205 -49 574 -66
795 -37 724 96 1361 503 1792 1146 89 134 207 363 257 501 29 81 37 95 75 121
75 53 107 141 122 332 l7 93 40 18 c23 10 44 17 48 14 4 -2 10 -21 14 -41z
m-3310 -773 c513 -58 906 -471 932 -981 3 -58 3 -131 -1 -162 -8 -63 -3 -60
-126 -71 l-55 -4 0 176 c-1 165 -2 182 -28 257 -33 101 -48 122 -96 136 -32 9
-44 8 -73 -5 -62 -30 -72 -83 -36 -181 18 -50 22 -81 23 -190 0 -71 -3 -142
-8 -157 -7 -25 -12 -28 -50 -28 -56 0 -145 14 -296 47 l-124 26 -44 -23 c-66
-35 -169 -150 -209 -233 -47 -98 -45 -130 9 -181 86 -83 336 -260 480 -340 37
-21 67 -41 67 -45 0 -10 -142 -66 -217 -86 -107 -28 -256 -39 -364 -26 -247
30 -438 121 -617 295 -134 130 -221 275 -279 463 -24 81 -27 102 -27 268 -1
156 2 191 21 261 115 419 450 720 868 779 116 16 141 17 250 5z"/>
<path d="M3133 3968 c-23 -11 -53 -64 -53 -93 0 -27 26 -69 60 -94 18 -13 41
-44 53 -70 29 -65 35 -272 13 -435 -10 -65 -14 -131 -11 -146 10 -45 50 -75
101 -75 94 0 121 78 131 380 6 201 -6 297 -52 391 -57 118 -163 180 -242 142z"/>
<path d="M3734 1116 c-48 -48 -47 -95 1 -143 32 -32 40 -35 76 -30 136 18 126
207 -12 207 -22 0 -41 -10 -65 -34z"/>
<path d="M3498 985 c-122 -67 -373 -140 -514 -150 -49 -4 -106 -11 -126 -16
-79 -20 -105 -113 -49 -170 28 -27 34 -29 113 -29 188 0 460 70 656 169 71 36
92 62 92 114 0 56 -43 97 -102 97 -24 -1 -55 -7 -70 -15z"/>
<path d="M1742 2065 c-39 -17 -66 -72 -57 -115 8 -35 49 -78 78 -82 33 -6 77
9 104 34 17 16 23 32 23 65 0 79 -76 130 -148 98z"/>
</g>
</svg>
