<?xml version="1.0" standalone="no"?>
<!DOCTYPE svg PUBLIC "-//W3C//DTD SVG 20010904//EN"
 "http://www.w3.org/TR/2001/REC-SVG-20010904/DTD/svg10.dtd">
<svg version="1.0" xmlns="http://www.w3.org/2000/svg"
 width="512.000000pt" height="512.000000pt" viewBox="0 0 512.000000 512.000000"
 preserveAspectRatio="xMidYMid meet">
<metadata>
Created by potrace 1.16, written by Peter Selinger 2001-2019
</metadata>
<g transform="translate(0.000000,512.000000) scale(0.100000,-0.100000)"
fill="#000000" stroke="none">
<path d="M1368 5021 c-31 -10 -74 -29 -95 -42 -51 -31 -128 -104 -153 -144
-18 -28 -26 -33 -76 -38 -84 -9 -193 -65 -263 -135 -55 -54 -121 -162 -121
-196 0 -9 -36 -33 -82 -58 -120 -62 -213 -159 -272 -280 -56 -116 -69 -186
-64 -325 3 -83 10 -125 30 -180 33 -94 105 -199 178 -265 l60 -53 -15 -49 c-8
-27 -15 -88 -15 -138 0 -133 41 -240 127 -330 l36 -37 -2 -99 c-3 -145 32
-240 124 -341 57 -63 145 -117 225 -137 l69 -18 85 -240 86 -239 -78 -76 c-43
-42 -93 -97 -110 -123 -18 -27 -35 -48 -38 -48 -2 0 -95 20 -206 45 -274 61
-333 59 -411 -14 -50 -46 -67 -91 -67 -181 l0 -80 -32 0 c-72 -1 -161 -66
-192 -142 -20 -48 -20 -148 0 -196 31 -76 120 -141 192 -142 l32 0 0 -80 c0
-90 17 -135 67 -181 78 -73 137 -75 411 -14 111 25 203 45 205 45 2 0 30 -33
61 -74 110 -144 251 -241 436 -301 72 -24 107 -28 230 -32 l145 -5 1405 217
c773 119 1421 221 1440 227 120 37 229 131 283 245 31 65 32 73 32 193 0 119
-1 128 -31 190 -37 78 -97 148 -164 191 l-48 31 39 52 c86 112 165 295 194
449 21 109 21 465 0 574 -44 232 -155 434 -330 602 -119 113 -180 145 -288
150 -92 4 -153 -11 -207 -50 -42 -30 -65 -36 -75 -19 -8 13 -100 60 -117 60
-38 1 -39 11 -23 176 29 309 19 371 -74 465 -68 68 -123 89 -231 89 -108 0
-163 -21 -231 -89 -93 -94 -103 -156 -74 -465 9 -88 12 -162 8 -166 -4 -4 -29
-14 -54 -24 -25 -9 -61 -27 -79 -41 -18 -13 -37 -22 -41 -19 -5 3 -9 42 -9 88
0 91 -19 168 -56 234 l-25 42 25 43 c38 66 56 142 56 237 0 138 -37 235 -128
332 -83 89 -209 148 -316 148 l-55 0 -28 57 c-49 100 -150 193 -253 233 -19 7
-57 34 -85 60 -91 84 -197 130 -302 130 l-52 0 -26 55 c-52 110 -168 209 -286
246 -80 25 -222 25 -301 0z m279 -176 c102 -47 170 -144 188 -269 7 -45 9 -48
34 -42 48 12 201 19 201 10 0 -5 -22 -19 -49 -32 -56 -25 -150 -107 -180 -156
-19 -30 -27 -34 -77 -39 -84 -9 -193 -65 -263 -135 -55 -54 -121 -162 -121
-196 0 -9 -36 -33 -82 -58 -120 -62 -213 -159 -272 -280 -56 -116 -69 -186
-64 -325 3 -83 10 -125 30 -180 33 -94 105 -199 178 -265 l60 -53 -15 -49 c-8
-27 -15 -88 -15 -138 0 -133 41 -240 127 -330 l36 -37 -2 -98 c-2 -141 30
-236 111 -329 17 -19 29 -36 27 -38 -2 -1 -29 -12 -61 -23 l-56 -20 -99 276
-98 276 -83 13 c-97 14 -148 38 -202 92 -99 99 -115 218 -53 387 2 6 -20 27
-50 47 -97 65 -146 150 -147 256 0 85 12 124 61 200 22 34 39 63 37 65 -2 1
-32 17 -68 36 -77 41 -171 125 -207 186 -86 148 -84 351 6 492 61 94 161 171
269 206 42 14 53 22 57 43 30 147 100 237 212 278 21 7 73 13 115 14 l77 0 24
53 c34 74 79 121 149 157 82 40 186 43 265 5z m720 -480 c102 -47 170 -144
188 -269 l7 -47 42 8 c22 4 79 8 126 8 98 -1 144 -19 210 -85 68 -68 85 -111
85 -220 0 -110 -13 -142 -90 -228 l-47 -52 47 -52 c58 -65 84 -116 92 -178 l6
-48 -79 -3 c-108 -5 -170 -37 -283 -144 -91 -87 -155 -167 -206 -259 l-31 -54
-43 129 c-44 127 -44 129 -32 186 38 167 144 356 285 507 25 28 46 53 46 57 0
4 -21 33 -47 66 -26 32 -48 60 -50 62 -7 9 -116 -106 -179 -189 -36 -47 -89
-133 -119 -192 l-54 -107 -94 192 c-90 185 -206 399 -231 424 -8 9 -27 2 -78
-30 -37 -23 -68 -46 -68 -50 0 -5 23 -47 51 -94 54 -92 202 -383 197 -388 -2
-2 -35 5 -75 15 -134 35 -413 54 -428 30 -4 -6 -4 -44 0 -84 l7 -73 137 -6
c154 -7 272 -32 365 -77 97 -46 119 -72 161 -185 52 -140 114 -325 110 -325
-2 0 -28 10 -57 21 -126 50 -308 89 -421 89 l-58 0 3 -82 3 -83 85 -7 c155
-13 351 -75 441 -138 l29 -21 0 -222 c0 -173 4 -241 18 -309 14 -67 15 -88 6
-88 -7 0 -99 13 -204 30 -105 16 -232 35 -283 40 -148 17 -236 68 -292 171
-47 88 -47 183 2 316 2 6 -20 27 -50 47 -97 65 -146 150 -147 256 0 85 12 124
61 200 22 34 39 63 37 65 -2 1 -32 17 -68 36 -77 41 -171 125 -207 186 -86
148 -84 351 6 492 61 94 161 171 269 206 42 14 53 22 57 43 30 147 100 237
212 278 21 7 73 13 115 14 l77 0 24 53 c34 74 79 121 149 157 82 40 186 43
265 5z m1396 -632 c42 -21 67 -69 67 -130 0 -46 -49 -621 -65 -759 l-6 -50 55
-17 c30 -10 65 -26 78 -37 l23 -20 -23 -20 c-37 -31 -117 -50 -212 -50 -95 0
-175 19 -212 50 l-23 20 23 20 c13 11 48 27 78 37 l55 17 -6 50 c-16 138 -65
713 -65 759 0 124 116 189 233 130z m-697 -728 l25 -16 -30 -34 c-114 -130
-211 -336 -247 -523 -16 -83 -19 -588 -4 -677 4 -27 6 -52 4 -54 -7 -8 -250
32 -262 43 -6 7 -24 57 -38 111 -24 91 -26 118 -26 295 -1 149 3 214 16 275
47 216 161 406 323 540 91 75 167 88 239 40z m1434 -12 c59 -45 165 -157 210
-223 54 -80 103 -186 130 -281 47 -170 47 -487 0 -657 -37 -132 -111 -269
-202 -374 l-33 -38 -70 11 c-38 6 -71 12 -73 14 -2 1 9 31 22 66 64 160 69
199 74 531 3 253 1 322 -13 393 -32 173 -114 357 -221 497 -24 31 -44 59 -44
62 0 3 10 11 23 17 61 33 138 26 197 -18z m-1098 -88 c-38 -25 -95 -81 -108
-106 -18 -36 -18 -122 0 -157 20 -38 74 -86 124 -112 34 -17 42 -25 36 -38
-14 -29 -17 -704 -4 -799 6 -47 9 -87 6 -90 -5 -5 -432 58 -446 67 -35 22 -61
392 -41 610 17 200 67 344 170 492 55 80 163 191 226 233 l40 27 6 -59 c5 -46
3 -60 -9 -68z m604 99 c100 -66 214 -204 282 -340 79 -155 112 -329 112 -584
0 -237 -28 -403 -92 -542 -28 -61 -33 -67 -57 -62 -14 2 -145 22 -291 44 -146
22 -277 43 -291 46 -26 5 -28 10 -44 117 -20 125 -27 550 -12 710 l9 87 82 0
c165 0 311 65 362 162 18 35 18 121 0 157 -13 25 -69 80 -107 106 -12 8 -14
24 -11 68 2 31 7 57 12 57 4 0 25 -12 46 -26z m-742 -1550 c953 -146 1413
-221 1442 -233 51 -23 113 -83 139 -136 28 -56 28 -194 0 -250 -26 -53 -88
-113 -139 -136 -68 -30 -2811 -450 -2941 -450 -205 -1 -383 76 -522 225 -76
80 -124 159 -160 261 -26 74 -28 91 -28 225 0 134 2 151 28 225 109 308 410
510 727 487 30 -2 685 -100 1454 -218z m-2516 -143 c96 -22 175 -41 178 -43 2
-3 -1 -19 -7 -37 l-11 -32 -193 3 c-206 3 -219 6 -228 55 -6 30 8 74 26 85 21
13 58 8 235 -31z m132 -351 l0 -80 -275 0 c-217 0 -283 3 -310 14 -37 16 -52
48 -41 92 12 48 45 53 349 54 l277 0 0 -80z m39 -272 c7 -19 8 -34 2 -37 -24
-15 -371 -83 -394 -78 -29 8 -48 50 -40 90 10 52 21 54 245 56 l176 1 11 -32z"/>
<path d="M1680 960 l0 -400 80 0 80 0 0 400 0 400 -80 0 -80 0 0 -400z"/>
<path d="M2320 960 l0 -400 80 0 80 0 0 400 0 400 -80 0 -80 0 0 -400z"/>
<path d="M2960 960 l0 -400 80 0 80 0 0 400 0 400 -80 0 -80 0 0 -400z"/>
<path d="M3600 960 l0 -240 80 0 80 0 0 240 0 240 -80 0 -80 0 0 -240z"/>
<path d="M4240 960 l0 -160 80 0 80 0 0 160 0 160 -80 0 -80 0 0 -160z"/>
</g>
</svg>
